<?xml version="1.0" encoding="UTF-8" standalone="no"?>
<!DOCTYPE svg PUBLIC "-//W3C//DTD SVG 1.1//EN"
 "http://www.w3.org/Graphics/SVG/1.1/DTD/svg11.dtd">
<!-- Generated by graphviz version 2.49.0 (20210828.1703)
 -->
<!-- Pages: 1 -->
<svg width="206pt" height="102pt"
 viewBox="0.00 0.00 206.00 102.00" xmlns="http://www.w3.org/2000/svg" xmlns:xlink="http://www.w3.org/1999/xlink">
<g id="graph0" class="graph" transform="scale(1 1) rotate(0) translate(4 98)">
<polygon fill="white" stroke="transparent" points="-4,4 -4,-98 202,-98 202,4 -4,4"/>
<!-- A -->
<g id="node1" class="node">
<title>A</title>
<polygon fill="none" stroke="transparent" points="54,-94 0,-94 0,-58 54,-58 54,-94"/>
<text text-anchor="middle" x="27" y="-72.3" font-family="Times New Roman,serif" font-size="14.00">A</text>
</g>
<!-- C -->
<g id="node3" class="node">
<title>C</title>
<polygon fill="none" stroke="transparent" points="126,-94 72,-94 72,-58 126,-58 126,-94"/>
<text text-anchor="middle" x="99" y="-72.3" font-family="Times New Roman,serif" font-size="14.00">C</text>
</g>
<!-- A&#45;&gt;C -->
<g id="edge5" class="edge">
<title>A&#45;&gt;C</title>
<path fill="none" stroke="black" d="M54.28,-76C56.74,-76 59.19,-76 61.65,-76"/>
<polygon fill="black" stroke="black" points="61.75,-79.5 71.75,-76 61.75,-72.5 61.75,-79.5"/>
</g>
<!-- X -->
<g id="node4" class="node">
<title>X</title>
<polygon fill="none" stroke="transparent" points="90,-36 36,-36 36,0 90,0 90,-36"/>
<text text-anchor="middle" x="63" y="-14.3" font-family="Times New Roman,serif" font-size="14.00">X</text>
</g>
<!-- A&#45;&gt;X -->
<g id="edge4" class="edge">
<title>A&#45;&gt;X</title>
<path fill="none" stroke="black" d="M38,-57.89C40.72,-53.66 43.69,-49.03 46.61,-44.49"/>
<polygon fill="black" stroke="black" points="49.61,-46.31 52.07,-36 43.72,-42.52 49.61,-46.31"/>
</g>
<!-- B -->
<g id="node2" class="node">
<title>B</title>
<polygon fill="none" stroke="transparent" points="198,-94 144,-94 144,-58 198,-58 198,-94"/>
<text text-anchor="middle" x="171" y="-72.3" font-family="Times New Roman,serif" font-size="14.00">B</text>
</g>
<!-- B&#45;&gt;C -->
<g id="edge6" class="edge">
<title>B&#45;&gt;C</title>
<path fill="none" stroke="black" d="M143.75,-76C141.29,-76 138.84,-76 136.38,-76"/>
<polygon fill="black" stroke="black" points="136.28,-72.5 126.28,-76 136.28,-79.5 136.28,-72.5"/>
</g>
<!-- Y -->
<g id="node5" class="node">
<title>Y</title>
<polygon fill="none" stroke="transparent" points="162,-36 108,-36 108,0 162,0 162,-36"/>
<text text-anchor="middle" x="135" y="-14.3" font-family="Times New Roman,serif" font-size="14.00">Y</text>
</g>
<!-- B&#45;&gt;Y -->
<g id="edge7" class="edge">
<title>B&#45;&gt;Y</title>
<path fill="none" stroke="black" d="M160,-57.89C157.28,-53.66 154.31,-49.03 151.39,-44.49"/>
<polygon fill="black" stroke="black" points="154.28,-42.52 145.93,-36 148.39,-46.31 154.28,-42.52"/>
</g>
<!-- C&#45;&gt;X -->
<g id="edge1" class="edge">
<title>C&#45;&gt;X</title>
<path fill="none" stroke="black" d="M88,-57.89C85.28,-53.66 82.31,-49.03 79.39,-44.49"/>
<polygon fill="black" stroke="black" points="82.28,-42.52 73.93,-36 76.39,-46.31 82.28,-42.52"/>
</g>
<!-- C&#45;&gt;Y -->
<g id="edge2" class="edge">
<title>C&#45;&gt;Y</title>
<path fill="none" stroke="black" d="M110,-57.89C112.72,-53.66 115.69,-49.03 118.61,-44.49"/>
<polygon fill="black" stroke="black" points="121.61,-46.31 124.07,-36 115.72,-42.52 121.61,-46.31"/>
</g>
<!-- X&#45;&gt;Y -->
<g id="edge3" class="edge">
<title>X&#45;&gt;Y</title>
<path fill="none" stroke="black" d="M90.28,-18C92.74,-18 95.19,-18 97.65,-18"/>
<polygon fill="black" stroke="black" points="97.75,-21.5 107.75,-18 97.75,-14.5 97.75,-21.5"/>
</g>
</g>
</svg>
