<?xml version="1.0" encoding="UTF-8" standalone="no"?>
<!DOCTYPE svg PUBLIC "-//W3C//DTD SVG 1.1//EN"
 "http://www.w3.org/Graphics/SVG/1.1/DTD/svg11.dtd">
<!-- Generated by graphviz version 2.49.0 (20210828.1703)
 -->
<!-- Pages: 1 -->
<svg width="117pt" height="90pt"
 viewBox="0.00 0.00 117.00 90.00" xmlns="http://www.w3.org/2000/svg" xmlns:xlink="http://www.w3.org/1999/xlink">
<g id="graph0" class="graph" transform="scale(1 1) rotate(0) translate(4 86)">
<polygon fill="white" stroke="transparent" points="-4,4 -4,-86 113,-86 113,4 -4,4"/>
<!-- p -->
<g id="node1" class="node">
<title>p</title>
<polygon fill="none" stroke="transparent" points="25,-82 1,-82 1,-59 25,-59 25,-82"/>
<text text-anchor="middle" x="13" y="-66.8" font-family="Times New Roman,serif" font-size="14.00">p</text>
</g>
<!-- W -->
<g id="node2" class="node">
<title>W</title>
<polygon fill="none" stroke="transparent" points="109,-82 79,-82 79,-59 109,-59 109,-82"/>
<text text-anchor="middle" x="94" y="-66.8" font-family="Times New Roman,serif" font-size="14.00">W</text>
</g>
<!-- p&#45;&gt;W -->
<g id="edge1" class="edge">
<title>p&#45;&gt;W</title>
<path fill="none" stroke="black" d="M25.02,-70.5C39.62,-70.5 54.21,-70.5 68.81,-70.5"/>
<polygon fill="black" stroke="black" points="68.91,-74 78.91,-70.5 68.91,-67 68.91,-74"/>
</g>
<!-- L -->
<g id="node4" class="node">
<title>L</title>
<polygon fill="none" stroke="transparent" points="105.5,-23 80.5,-23 80.5,0 105.5,0 105.5,-23"/>
<text text-anchor="middle" x="93" y="-7.8" font-family="Times New Roman,serif" font-size="14.00">L</text>
</g>
<!-- p&#45;&gt;L -->
<g id="edge2" class="edge">
<title>p&#45;&gt;L</title>
<path fill="none" stroke="black" d="M25.15,-60.84C37.65,-51.94 57.34,-37.91 72.3,-27.25"/>
<polygon fill="black" stroke="black" points="74.36,-30.08 80.47,-21.43 70.3,-24.38 74.36,-30.08"/>
</g>
<!-- N -->
<g id="node3" class="node">
<title>N</title>
<polygon fill="none" stroke="transparent" points="26,-23 0,-23 0,0 26,0 26,-23"/>
<text text-anchor="middle" x="13" y="-7.8" font-family="Times New Roman,serif" font-size="14.00">N</text>
</g>
<!-- N&#45;&gt;W -->
<g id="edge3" class="edge">
<title>N&#45;&gt;W</title>
<path fill="none" stroke="black" d="M26.03,-21.67C37.94,-30.05 55.86,-42.66 70.3,-52.82"/>
<polygon fill="black" stroke="black" points="68.57,-55.89 78.76,-58.78 72.6,-50.16 68.57,-55.89"/>
</g>
<!-- N&#45;&gt;L -->
<g id="edge4" class="edge">
<title>N&#45;&gt;L</title>
<path fill="none" stroke="black" d="M26.12,-11.5C40.84,-11.5 55.56,-11.5 70.27,-11.5"/>
<polygon fill="black" stroke="black" points="70.46,-15 80.46,-11.5 70.46,-8 70.46,-15"/>
</g>
</g>
</svg>
